<svg width="95" height="23" viewBox="0 0 95 23" fill="none" class=""><path d="M5.4146 17.264C3.80127 17.264 2.61327 16.7947 1.8506 15.856C1.08793 14.9027 0.706602 13.5827 0.706602 11.896C0.706602 10.1947 1.2126 8.72067 2.2246 7.474C3.2366 6.22733 4.5346 5.604 6.1186 5.604C9.3746 5.604 11.0026 7.43733 11.0026 11.104C11.0026 12.82 10.4746 14.2793 9.4186 15.482C8.3626 16.67 7.02794 17.264 5.4146 17.264ZM3.8306 8.024C3.5666 8.87467 3.4346 9.72533 3.4346 10.576C3.4346 11.4267 3.46394 12.0867 3.5226 12.556C3.58127 13.0253 3.69127 13.4947 3.8526 13.964C4.18993 14.9173 4.84994 15.394 5.8326 15.394C6.82994 15.394 7.4826 15.13 7.7906 14.602C8.11327 14.074 8.2746 13.26 8.2746 12.16C8.2746 9.036 7.53394 7.474 6.0526 7.474C5.20194 7.474 4.46127 7.65733 3.8306 8.024ZM15.9669 16.736C15.5122 16.912 15.0282 17 14.5149 17C14.0015 17 13.5835 16.8827 13.2609 16.648C12.9529 16.3987 12.7989 16.0613 12.7989 15.636C12.7989 15.196 12.8649 14.404 12.9969 13.26C13.1289 12.116 13.1949 11.0087 13.1949 9.938C13.1949 8.85267 13.0262 7.584 12.6889 6.132C13.1582 5.956 13.6202 5.868 14.0749 5.868C14.5295 5.868 14.9182 6.022 15.2409 6.33C15.5782 6.638 15.7469 7.04867 15.7469 7.562C15.7469 7.826 15.7029 8.222 15.6149 8.75C15.5269 9.26333 15.4755 9.652 15.4609 9.916C16.0329 8.61067 16.7075 7.59133 17.4849 6.858C18.2769 6.11 19.0615 5.736 19.8389 5.736C20.3815 5.736 20.8142 5.92667 21.1369 6.308C21.4595 6.68933 21.6209 7.17333 21.6209 7.76C21.6209 8.332 21.4742 8.80133 21.1809 9.168C20.8875 9.52 20.5209 9.696 20.0809 9.696C19.6555 9.696 19.3109 9.652 19.0469 9.564C19.0909 9.388 19.1129 9.22667 19.1129 9.08C19.1129 8.47867 18.9002 8.178 18.4749 8.178C17.8295 8.178 17.2209 8.83067 16.6489 10.136C16.0915 11.4267 15.7175 12.6367 15.5269 13.766C15.6002 14.866 15.7469 15.856 15.9669 16.736ZM30.2676 7.958C29.4902 7.72333 28.7202 7.606 27.9576 7.606C27.1949 7.606 26.4762 7.83333 25.8016 8.288C25.2736 9.344 25.0096 10.466 25.0096 11.654C25.0096 12.3433 25.1049 13.018 25.2956 13.678C25.4862 14.3233 25.8016 14.646 26.2416 14.646C26.7402 14.646 27.4076 13.9347 28.2436 12.512C29.0796 11.0893 29.7542 9.57133 30.2676 7.958ZM26.9676 20.608C27.9062 20.608 28.6396 20.2853 29.1676 19.64C29.6956 18.9947 29.9596 18.166 29.9596 17.154C29.9596 16.6553 29.9229 15.9293 29.8496 14.976C29.7909 14.0227 29.7542 13.348 29.7396 12.952C28.6982 14.7707 27.7889 15.8853 27.0116 16.296C26.6156 16.5013 26.1976 16.604 25.7576 16.604C24.6576 16.604 23.8069 16.1713 23.2056 15.306C22.6042 14.4407 22.3036 13.3847 22.3036 12.138C22.3036 10.4367 22.8316 8.948 23.8876 7.672C24.9582 6.38133 26.3076 5.736 27.9356 5.736C29.5782 5.736 31.2356 6.022 32.9076 6.594C32.4676 8.16333 32.2476 9.70333 32.2476 11.214C32.2476 11.9327 32.2989 12.8273 32.4016 13.898C32.5042 14.954 32.5556 15.7387 32.5556 16.252C32.5556 18.056 31.9836 19.5447 30.8396 20.718C29.6956 21.906 28.2289 22.5 26.4396 22.5C25.3836 22.5 24.4742 22.2947 23.7116 21.884C22.9636 21.488 22.5896 20.8647 22.5896 20.014C22.5896 19.486 22.7876 19.0387 23.1836 18.672C23.5796 18.3053 24.0489 18.122 24.5916 18.122C24.7089 18.122 24.8556 18.1367 25.0316 18.166C24.9876 18.3567 24.9656 18.5253 24.9656 18.672C24.9656 19.2 25.1636 19.6547 25.5596 20.036C25.9556 20.4173 26.4249 20.608 26.9676 20.608ZM44.9802 6.638C44.5842 8.32467 44.3862 10.0187 44.3862 11.72C44.3862 13.4067 44.5769 15.0787 44.9582 16.736C44.4302 16.912 43.8876 17 43.3302 17C42.7729 17 42.3842 16.8387 42.1642 16.516C41.9442 16.1787 41.8342 15.702 41.8342 15.086C41.8342 14.4553 41.9296 13.5973 42.1202 12.512C41.0789 14.7413 40.0742 16.1493 39.1062 16.736C38.6662 17 38.2116 17.132 37.7422 17.132C36.6276 17.132 35.7622 16.7213 35.1462 15.9C34.5302 15.064 34.2222 14.03 34.2222 12.798C34.2222 10.9207 34.7429 9.278 35.7842 7.87C36.8256 6.44733 38.1749 5.736 39.8322 5.736C41.5042 5.736 43.2202 6.03667 44.9802 6.638ZM42.0982 7.958C41.3209 7.72333 40.6609 7.606 40.1182 7.606C39.0182 7.606 38.1969 7.848 37.6542 8.332C37.1556 9.564 36.9062 10.818 36.9062 12.094C36.9062 12.7687 37.0089 13.4507 37.2142 14.14C37.4342 14.8293 37.7642 15.174 38.2042 15.174C38.7176 15.174 39.3776 14.4187 40.1842 12.908C40.9909 11.3973 41.6289 9.74733 42.0982 7.958ZM57.1665 8.112L56.9465 12.952C56.9465 14.2867 57.1518 15.592 57.5625 16.868C57.1518 17.044 56.6825 17.132 56.1545 17.132C54.9078 17.132 54.2845 16.4353 54.2845 15.042C54.2845 14.4113 54.3652 13.3553 54.5265 11.874C54.6878 10.378 54.7685 9.43933 54.7685 9.058C54.7685 8.32467 54.4385 7.958 53.7785 7.958C53.2945 7.958 52.7445 8.31 52.1285 9.014C51.5272 9.70333 51.0065 10.4807 50.5665 11.346C50.1412 12.1967 49.8918 12.9007 49.8185 13.458C49.8772 14.602 50.0238 15.6947 50.2585 16.736C49.7892 16.912 49.2978 17 48.7845 17C48.2858 17 47.8752 16.8827 47.5525 16.648C47.2445 16.3987 47.0905 16.0613 47.0905 15.636C47.0905 15.196 47.1565 14.4187 47.2885 13.304C47.4205 12.1747 47.4865 11.06 47.4865 9.96C47.4865 8.84533 47.3178 7.56933 46.9805 6.132C47.4498 5.956 47.9485 5.868 48.4765 5.868C49.0045 5.868 49.4298 6.022 49.7525 6.33C50.0898 6.638 50.2585 7.01933 50.2585 7.474C50.2585 7.92867 50.1998 8.65467 50.0825 9.652C50.6398 8.61067 51.3658 7.70133 52.2605 6.924C53.1552 6.132 54.0498 5.736 54.9445 5.736C56.4258 5.736 57.1665 6.528 57.1665 8.112ZM59.8931 6.066C60.3625 5.934 60.8318 5.868 61.3011 5.868C61.7851 5.868 62.1958 6.01467 62.5331 6.308C62.8705 6.60133 63.0391 6.98267 63.0391 7.452C63.0391 7.90667 62.9585 8.706 62.7971 9.85C62.6505 10.9793 62.5771 11.8593 62.5771 12.49C62.5771 14.1327 62.7311 15.548 63.0391 16.736C62.5845 16.912 62.0931 17 61.5651 17C61.0371 17 60.6191 16.8827 60.3111 16.648C60.0031 16.3987 59.8491 16.0467 59.8491 15.592C59.8491 15.1227 59.9371 14.36 60.1131 13.304C60.2891 12.248 60.3771 11.3753 60.3771 10.686C60.3771 8.85267 60.2158 7.31267 59.8931 6.066ZM60.1791 1.094C60.6925 0.859333 61.1985 0.742 61.6971 0.742C62.1958 0.742 62.5625 0.874 62.7971 1.138C63.0465 1.38733 63.1711 1.76133 63.1711 2.26C63.1711 2.75867 63.0025 3.19867 62.6651 3.58C62.3425 3.96133 61.9171 4.152 61.3891 4.152C60.3038 4.152 59.7611 3.58733 59.7611 2.458C59.7611 1.95933 59.9005 1.50467 60.1791 1.094ZM68.7786 6L72.0566 5.934C72.5699 5.934 72.9439 6.03667 73.1786 6.242C73.4132 6.44733 73.5306 6.77 73.5306 7.21C73.5306 7.63533 73.2812 8.14867 72.7826 8.75C72.2986 9.35133 71.7339 9.938 71.0886 10.51C70.4579 11.0673 69.7979 11.742 69.1086 12.534C68.4339 13.326 67.9499 14.052 67.6566 14.712C68.1846 14.8 68.8226 14.844 69.5706 14.844C71.2426 14.844 72.4672 14.6167 73.2446 14.162C73.4352 14.5433 73.5306 14.976 73.5306 15.46C73.5306 15.944 73.3619 16.3473 73.0246 16.67C72.6872 16.978 72.2692 17.132 71.7706 17.132C71.2866 17.132 70.5459 17.0807 69.5486 16.978C68.5659 16.8607 67.8032 16.802 67.2606 16.802C66.7179 16.802 65.9186 16.868 64.8626 17C64.6866 16.7067 64.5986 16.362 64.5986 15.966C64.5986 15.306 65.0386 14.4407 65.9186 13.37C66.7986 12.2847 67.7812 11.192 68.8666 10.092C69.9519 8.97733 70.6192 8.178 70.8686 7.694C70.6486 7.738 70.2966 7.81867 69.8126 7.936C69.3286 8.03867 68.9472 8.11933 68.6686 8.178C67.9352 8.33933 67.2606 8.42 66.6446 8.42C66.0286 8.42 65.5519 8.288 65.2146 8.024C64.8919 7.74533 64.7306 7.35667 64.7306 6.858C64.7306 6.34467 64.8259 5.94867 65.0166 5.67C65.9552 5.89 67.2092 6 68.7786 6ZM77.1035 12.006C77.1035 13.062 77.2722 13.898 77.6095 14.514C77.9468 15.1153 78.5115 15.416 79.3035 15.416C80.0955 15.416 80.7115 15.152 81.1515 14.624C81.6062 14.0813 81.8335 13.4287 81.8335 12.666C82.3322 12.666 82.7648 12.7907 83.1315 13.04C83.4982 13.2893 83.6815 13.634 83.6815 14.074C83.6815 14.9833 83.1975 15.746 82.2295 16.362C81.2615 16.9633 80.2422 17.264 79.1715 17.264C77.4995 17.264 76.2895 16.8167 75.5415 15.922C74.7935 15.0127 74.4195 13.6707 74.4195 11.896C74.4195 10.1213 74.9182 8.63267 75.9155 7.43C76.9275 6.21267 78.2695 5.604 79.9415 5.604C81.0855 5.604 82.0022 5.868 82.6915 6.396C83.3955 6.90933 83.7475 7.716 83.7475 8.816C83.7475 9.90133 83.2488 10.7227 82.2515 11.28C81.2688 11.8227 80.0662 12.094 78.6435 12.094C78.1448 12.094 77.6315 12.0647 77.1035 12.006ZM77.1255 10.268C77.5655 10.356 78.0275 10.4 78.5115 10.4C79.5675 10.4 80.4548 10.202 81.1735 9.806C81.2615 9.454 81.3055 9.17533 81.3055 8.97C81.3055 8.45667 81.1222 8.068 80.7555 7.804C80.3888 7.54 79.8828 7.408 79.2375 7.408C78.6068 7.408 78.0348 7.61333 77.5215 8.024C77.2575 8.78667 77.1255 9.53467 77.1255 10.268ZM89.0567 16.736C88.602 16.912 88.118 17 87.6047 17C87.0914 17 86.6734 16.8827 86.3507 16.648C86.0427 16.3987 85.8887 16.0613 85.8887 15.636C85.8887 15.196 85.9547 14.404 86.0867 13.26C86.2187 12.116 86.2847 11.0087 86.2847 9.938C86.2847 8.85267 86.116 7.584 85.7787 6.132C86.248 5.956 86.71 5.868 87.1647 5.868C87.6194 5.868 88.008 6.022 88.3307 6.33C88.668 6.638 88.8367 7.04867 88.8367 7.562C88.8367 7.826 88.7927 8.222 88.7047 8.75C88.6167 9.26333 88.5654 9.652 88.5507 9.916C89.1227 8.61067 89.7974 7.59133 90.5747 6.858C91.3667 6.11 92.1514 5.736 92.9287 5.736C93.4714 5.736 93.904 5.92667 94.2267 6.308C94.5494 6.68933 94.7107 7.17333 94.7107 7.76C94.7107 8.332 94.564 8.80133 94.2707 9.168C93.9774 9.52 93.6107 9.696 93.1707 9.696C92.7454 9.696 92.4007 9.652 92.1367 9.564C92.1807 9.388 92.2027 9.22667 92.2027 9.08C92.2027 8.47867 91.99 8.178 91.5647 8.178C90.9194 8.178 90.3107 8.83067 89.7387 10.136C89.1814 11.4267 88.8074 12.6367 88.6167 13.766C88.69 14.866 88.8367 15.856 89.0567 16.736Z" class="fill-background-dark dark:fill-background-light"></path></svg>